<svg xmlns="http://www.w3.org/2000/svg" xlink="http://www.w3.org/1999/xlink" width="0" height="0" style="display:none;">
<symbol viewBox="0 0 24 24" id="ri-arrow-right-s-line">
    <g>
        <path fill="none" d="M0 0h24v24H0z"/>
        <path d="M13.172 12l-4.95-4.95 1.414-1.414L16 12l-6.364 6.364-1.414-1.414z"/>
    </g>
</symbol>
<symbol viewBox="0 0 24 24" id="ri-arrow-up-s-line">
    <g>
        <path fill="none" d="M0 0h24v24H0z"/>
        <path d="M12 10.828l-4.95 4.95-1.414-1.414L12 8l6.364 6.364-1.414 1.414z"/>
    </g>
</symbol>
<symbol viewBox="0 0 24 24" id="ri-arrow-left-s-line">
    <g>
        <path fill="none" d="M0 0h24v24H0z"/>
        <path d="M10.828 12l4.95 4.95-1.414 1.414L8 12l6.364-6.364 1.414 1.414z"/>
    </g>
</symbol>
<symbol viewBox="0 0 24 24" id="ri-arrow-down-s-line">
    <g>
        <path fill="none" d="M0 0h24v24H0z"/>
        <path d="M12 13.172l4.95-4.95 1.414 1.414L12 16 5.636 9.636 7.05 8.222z"/>
    </g>
</symbol>
<symbol viewBox="0 0 24 24" id="ri-check-fill">
    <g>
        <path fill="none" d="M0 0h24v24H0z"/>
        <path d="M10 15.172l9.192-9.193 1.415 1.414L10 18l-6.364-6.364 1.414-1.414z"/>
    </g>
</symbol>
<symbol viewBox="0 0 24 24" id="ri-check-line">
    <g>
        <path fill="none" d="M0 0h24v24H0z"/>
        <path d="M10 15.172l9.192-9.193 1.415 1.414L10 18l-6.364-6.364 1.414-1.414z"/>
    </g>
</symbol>
<symbol viewBox="0 0 24 24" id="ri-checkbox-blank-circle-fill">
    <g>
        <path fill="none" d="M0 0h24v24H0z"/>
        <circle cx="12" cy="12" r="10"/>
    </g>
</symbol>
<symbol viewBox="0 0 24 24" id="ri-checkbox-blank-circle-line">
    <g>
        <path fill="none" d="M0 0h24v24H0z"/>
        <path d="M12 22C6.477 22 2 17.523 2 12S6.477 2 12 2s10 4.477 10 10-4.477 10-10 10zm0-2a8 8 0 1 0 0-16 8 8 0 0 0 0 16z"/>
    </g>
</symbol>
<symbol viewBox="0 0 24 24" id="ri-checkbox-blank-fill">
    <g>
        <path fill="none" d="M0 0h24v24H0z"/>
        <path d="M4 3h16a1 1 0 0 1 1 1v16a1 1 0 0 1-1 1H4a1 1 0 0 1-1-1V4a1 1 0 0 1 1-1z"/>
    </g>
</symbol>
<symbol viewBox="0 0 24 24" id="ri-checkbox-blank-line">
    <g>
        <path fill="none" d="M0 0h24v24H0z"/>
        <path d="M4 3h16a1 1 0 0 1 1 1v16a1 1 0 0 1-1 1H4a1 1 0 0 1-1-1V4a1 1 0 0 1 1-1zm1 2v14h14V5H5z"/>
    </g>
</symbol>
<symbol viewBox="0 0 24 24" id="ri-checkbox-circle-fill">
    <g>
        <path fill="none" d="M0 0h24v24H0z"/>
        <path d="M12 22C6.477 22 2 17.523 2 12S6.477 2 12 2s10 4.477 10 10-4.477 10-10 10zm-.997-6l7.07-7.071-1.414-1.414-5.656 5.657-2.829-2.829-1.414 1.414L11.003 16z"/>
    </g>
</symbol>
<symbol viewBox="0 0 24 24" id="ri-checkbox-circle-line">
    <g>
        <path fill="none" d="M0 0h24v24H0z"/>
        <path d="M12 22C6.477 22 2 17.523 2 12S6.477 2 12 2s10 4.477 10 10-4.477 10-10 10zm0-2a8 8 0 1 0 0-16 8 8 0 0 0 0 16zm-.997-4L6.76 11.757l1.414-1.414 2.829 2.829 5.656-5.657 1.415 1.414L11.003 16z"/>
    </g>
</symbol>
<symbol viewBox="0 0 24 24" id="ri-checkbox-fill">
    <g>
        <path fill="none" d="M0 0h24v24H0z"/>
        <path d="M4 3h16a1 1 0 0 1 1 1v16a1 1 0 0 1-1 1H4a1 1 0 0 1-1-1V4a1 1 0 0 1 1-1zm7.003 13l7.07-7.071-1.414-1.414-5.656 5.657-2.829-2.829-1.414 1.414L11.003 16z"/>
    </g>
</symbol>
<symbol viewBox="0 0 24 24" id="ri-checkbox-indeterminate-fill">
    <g>
        <path fill="none" d="M0 0h24v24H0z"/>
        <path d="M4 3h16a1 1 0 0 1 1 1v16a1 1 0 0 1-1 1H4a1 1 0 0 1-1-1V4a1 1 0 0 1 1-1zm3 8v2h10v-2H7z"/>
    </g>
</symbol>
<symbol viewBox="0 0 24 24" id="ri-checkbox-indeterminate-line">
    <g>
        <path fill="none" d="M0 0h24v24H0z"/>
        <path d="M4 3h16a1 1 0 0 1 1 1v16a1 1 0 0 1-1 1H4a1 1 0 0 1-1-1V4a1 1 0 0 1 1-1zm1 2v14h14V5H5zm2 6h10v2H7v-2z"/>
    </g>
</symbol>
<symbol viewBox="0 0 24 24" id="ri-checkbox-line">
    <g>
        <path fill="none" d="M0 0h24v24H0z"/>
        <path d="M4 3h16a1 1 0 0 1 1 1v16a1 1 0 0 1-1 1H4a1 1 0 0 1-1-1V4a1 1 0 0 1 1-1zm1 2v14h14V5H5zm6.003 11L6.76 11.757l1.414-1.414 2.829 2.829 5.656-5.657 1.415 1.414L11.003 16z"/>
    </g>
</symbol><symbol viewBox="0 0 24 24" id="ri-close-circle-fill">
    <g>
        <path fill="none" d="M0 0h24v24H0z"/>
        <path d="M12 22C6.477 22 2 17.523 2 12S6.477 2 12 2s10 4.477 10 10-4.477 10-10 10zm0-11.414L9.172 7.757 7.757 9.172 10.586 12l-2.829 2.828 1.415 1.415L12 13.414l2.828 2.829 1.415-1.415L13.414 12l2.829-2.828-1.415-1.415L12 10.586z"/>
    </g>
</symbol>
<symbol viewBox="0 0 24 24" id="ri-close-circle-line">
    <g>
        <path fill="none" d="M0 0h24v24H0z"/>
        <path d="M12 22C6.477 22 2 17.523 2 12S6.477 2 12 2s10 4.477 10 10-4.477 10-10 10zm0-2a8 8 0 1 0 0-16 8 8 0 0 0 0 16zm0-9.414l2.828-2.829 1.415 1.415L13.414 12l2.829 2.828-1.415 1.415L12 13.414l-2.828 2.829-1.415-1.415L10.586 12 7.757 9.172l1.415-1.415L12 10.586z"/>
    </g>
</symbol>
<symbol viewBox="0 0 24 24" id="ri-close-line">
    <g>
        <path fill="none" d="M0 0h24v24H0z"/>
        <path d="M12 10.586l4.95-4.95 1.414 1.414-4.95 4.95 4.95 4.95-1.414 1.414-4.95-4.95-4.95 4.95-1.414-1.414 4.95-4.95-4.95-4.95L7.05 5.636z"/>
    </g>
</symbol>
<symbol viewBox="0 0 24 24" id="ri-attachment-2">
    <g>
        <path fill="none" d="M0 0h24v24H0z"/>
        <path d="M14.828 7.757l-5.656 5.657a1 1 0 1 0 1.414 1.414l5.657-5.656A3 3 0 1 0 12 4.929l-5.657 5.657a5 5 0 1 0 7.071 7.07L19.071 12l1.414 1.414-5.657 5.657a7 7 0 1 1-9.9-9.9l5.658-5.656a5 5 0 0 1 7.07 7.07L12 16.244A3 3 0 1 1 7.757 12l5.657-5.657 1.414 1.414z"/>
    </g>
</symbol>
<symbol viewBox="0 0 24 24" id="ri-attachment-fill">
    <g>
        <path fill="none" d="M0 0h24v24H0z"/>
        <path d="M20.997 2.992L21 21.008a1 1 0 0 1-.993.992H3.993A.993.993 0 0 1 3 21.008V2.992A1 1 0 0 1 3.993 2h16.01c.549 0 .994.444.994.992zM9 13V9a1 1 0 1 1 2 0v4a1 1 0 0 0 2 0V9a3 3 0 0 0-6 0v4a5 5 0 0 0 10 0V8h-2v5a3 3 0 0 1-6 0z"/>
    </g>
</symbol>
<symbol viewBox="0 0 24 24" id="ri-attachment-line">
    <g>
        <path fill="none" d="M0 0h24v24H0z"/>
        <path d="M14 13.5V8a4 4 0 1 0-8 0v5.5a6.5 6.5 0 1 0 13 0V4h2v9.5a8.5 8.5 0 1 1-17 0V8a6 6 0 1 1 12 0v5.5a3.5 3.5 0 0 1-7 0V8h2v5.5a1.5 1.5 0 0 0 3 0z"/>
    </g>
</symbol>
<symbol viewBox="0 0 24 24" id="ri-message-fill">
    <g>
        <path fill="none" d="M0 0h24v24H0z"/>
        <path d="M6.455 19L2 22.5V4a1 1 0 0 1 1-1h18a1 1 0 0 1 1 1v14a1 1 0 0 1-1 1H6.455zM8 10v2h8v-2H8z"/>
    </g>
</symbol>
<symbol viewBox="0 0 24 24" id="ri-message-line">
    <g>
        <path fill="none" d="M0 0h24v24H0z"/>
        <path d="M6.455 19L2 22.5V4a1 1 0 0 1 1-1h18a1 1 0 0 1 1 1v14a1 1 0 0 1-1 1H6.455zm-.692-2H20V5H4v13.385L5.763 17zM8 10h8v2H8v-2z"/>
    </g>
</symbol>
<symbol viewBox="0 0 24 24" id="ri-error-warning-fill">
    <g>
        <path fill="none" d="M0 0h24v24H0z"/>
        <path d="M12 22C6.477 22 2 17.523 2 12S6.477 2 12 2s10 4.477 10 10-4.477 10-10 10zm-1-7v2h2v-2h-2zm0-8v6h2V7h-2z"/>
    </g>
</symbol>
<symbol viewBox="0 0 24 24" id="ri-error-warning-line">
    <g>
        <path fill="none" d="M0 0h24v24H0z"/>
        <path d="M12 22C6.477 22 2 17.523 2 12S6.477 2 12 2s10 4.477 10 10-4.477 10-10 10zm0-2a8 8 0 1 0 0-16 8 8 0 0 0 0 16zm-1-5h2v2h-2v-2zm0-8h2v6h-2V7z"/>
    </g>
</symbol>
<symbol viewBox="0 0 24 24" id="ri-alert-fill">
    <g>
        <path fill="none" d="M0 0h24v24H0z"/>
        <path d="M12.866 3l9.526 16.5a1 1 0 0 1-.866 1.5H2.474a1 1 0 0 1-.866-1.5L11.134 3a1 1 0 0 1 1.732 0zM11 16v2h2v-2h-2zm0-7v5h2V9h-2z"/>
    </g>
</symbol>
<symbol viewBox="0 0 24 24" id="ri-alert-line">
    <g>
        <path fill="none" d="M0 0h24v24H0z"/>
        <path fill-rule="nonzero" d="M12.866 3l9.526 16.5a1 1 0 0 1-.866 1.5H2.474a1 1 0 0 1-.866-1.5L11.134 3a1 1 0 0 1 1.732 0zm-8.66 16h15.588L12 5.5 4.206 19zM11 16h2v2h-2v-2zm0-7h2v5h-2V9z"/>
    </g>
</symbol>
<symbol viewBox="0 0 24 24" id="ri-alarm-warning-fill">
    <g>
        <path fill="none" d="M0 0h24v24H0z"/>
        <path d="M4 20v-6a8 8 0 1 1 16 0v6h1v2H3v-2h1zm2-6h2a4 4 0 0 1 4-4V8a6 6 0 0 0-6 6zm5-12h2v3h-2V2zm8.778 2.808l1.414 1.414-2.12 2.121-1.415-1.414 2.121-2.121zM2.808 6.222l1.414-1.414 2.121 2.12L4.93 8.344 2.808 6.222z"/>
    </g>
</symbol><symbol viewBox="0 0 24 24" id="ri-alarm-warning-line">
    <g>
        <path fill="none" d="M0 0h24v24H0z"/>
        <path d="M4 20v-6a8 8 0 1 1 16 0v6h1v2H3v-2h1zm2 0h12v-6a6 6 0 1 0-12 0v6zm5-18h2v3h-2V2zm8.778 2.808l1.414 1.414-2.12 2.121-1.415-1.414 2.121-2.121zM2.808 6.222l1.414-1.414 2.121 2.12L4.93 8.344 2.808 6.222zM7 14a5 5 0 0 1 5-5v2a3 3 0 0 0-3 3H7z"/>
    </g>
</symbol>
</svg>